<?xml version="1.0" encoding="us-ascii" standalone="no"?><svg xmlns="http://www.w3.org/2000/svg" xmlns:xlink="http://www.w3.org/1999/xlink" contentStyleType="text/css" height="677px" preserveAspectRatio="none" style="width:1932px;height:677px;background:#FFFFFF;" version="1.1" viewBox="0 0 1932 677" width="1932px" zoomAndPan="magnify"><defs/><g><!--cluster Frontend Layer--><g id="cluster_Frontend Layer"><path d="M262.5,231.29 L384.5,231.29 A3.75,3.75 0 0 1 387,233.79 L394,253.5869 L715.5,253.5869 A2.5,2.5 0 0 1 718,256.0869 L718,486.39 A2.5,2.5 0 0 1 715.5,488.89 L262.5,488.89 A2.5,2.5 0 0 1 260,486.39 L260,233.79 A2.5,2.5 0 0 1 262.5,231.29 " fill="none" style="stroke:#000000;stroke-width:1.5;"/><line style="stroke:#000000;stroke-width:1.5;" x1="260" x2="394" y1="253.5869" y2="253.5869"/><text fill="#000000" font-family="sans-serif" font-size="14" font-weight="bold" lengthAdjust="spacing" textLength="121" x="264" y="246.2851">Frontend Layer</text></g><!--cluster Backend Microservices--><g id="cluster_Backend Microservices"><path d="M8.5,537.89 L191.5,537.89 A3.75,3.75 0 0 1 194,540.39 L201,560.1869 L1421.5,560.1869 A2.5,2.5 0 0 1 1424,562.6869 L1424,667.98 A2.5,2.5 0 0 1 1421.5,670.48 L8.5,670.48 A2.5,2.5 0 0 1 6,667.98 L6,540.39 A2.5,2.5 0 0 1 8.5,537.89 " fill="none" style="stroke:#000000;stroke-width:1.5;"/><line style="stroke:#000000;stroke-width:1.5;" x1="6" x2="201" y1="560.1869" y2="560.1869"/><text fill="#000000" font-family="sans-serif" font-size="14" font-weight="bold" lengthAdjust="spacing" textLength="182" x="10" y="552.8851">Backend Microservices</text></g><!--cluster Security--><g id="cluster_Security"><polygon fill="none" points="619,16,629,6,840,6,840,138.29,830,148.29,619,148.29,619,16" style="stroke:#181818;stroke-width:1.0;"/><line style="stroke:#181818;stroke-width:1.0;" x1="830" x2="840" y1="16" y2="6"/><line style="stroke:#181818;stroke-width:1.0;" x1="619" x2="830" y1="16" y2="16"/><line style="stroke:#181818;stroke-width:1.0;" x1="830" x2="830" y1="16" y2="148.29"/><text fill="#000000" font-family="sans-serif" font-size="14" font-weight="bold" lengthAdjust="spacing" textLength="65" x="693" y="31.9951">Security</text></g><!--cluster Infrastructure & Deployment--><g id="cluster_Infrastructure &amp; Deployment"><polygon fill="none" points="1066,54.78,1076,44.78,1474,44.78,1474,345.59,1464,355.59,1066,355.59,1066,54.78" style="stroke:#181818;stroke-width:1.0;"/><line style="stroke:#181818;stroke-width:1.0;" x1="1464" x2="1474" y1="54.78" y2="44.78"/><line style="stroke:#181818;stroke-width:1.0;" x1="1066" x2="1464" y1="54.78" y2="54.78"/><line style="stroke:#181818;stroke-width:1.0;" x1="1464" x2="1464" y1="54.78" y2="355.59"/><text fill="#000000" font-family="sans-serif" font-size="14" font-weight="bold" lengthAdjust="spacing" textLength="227" x="1152.5" y="70.7751">Infrastructure &amp; Deployment</text></g><!--cluster Monitoring and Logging--><g id="cluster_Monitoring and Logging"><polygon fill="none" points="1514,54.78,1524,44.78,1915,44.78,1915,345.59,1905,355.59,1514,355.59,1514,54.78" style="stroke:#181818;stroke-width:1.0;"/><line style="stroke:#181818;stroke-width:1.0;" x1="1905" x2="1915" y1="54.78" y2="44.78"/><line style="stroke:#181818;stroke-width:1.0;" x1="1514" x2="1905" y1="54.78" y2="54.78"/><line style="stroke:#181818;stroke-width:1.0;" x1="1905" x2="1905" y1="54.78" y2="355.59"/><text fill="#000000" font-family="sans-serif" font-size="14" font-weight="bold" lengthAdjust="spacing" textLength="186" x="1617.5" y="70.7751">Monitoring and Logging</text></g><!--cluster API Gateway--><g id="cluster_API Gateway"><polygon fill="none" points="750,223.29,760,213.29,929,213.29,929,345.59,919,355.59,750,355.59,750,223.29" style="stroke:#181818;stroke-width:1.0;"/><line style="stroke:#181818;stroke-width:1.0;" x1="919" x2="929" y1="223.29" y2="213.29"/><line style="stroke:#181818;stroke-width:1.0;" x1="750" x2="919" y1="223.29" y2="223.29"/><line style="stroke:#181818;stroke-width:1.0;" x1="919" x2="919" y1="223.29" y2="355.59"/><text fill="#000000" font-family="sans-serif" font-size="14" font-weight="bold" lengthAdjust="spacing" textLength="99" x="786" y="239.2851">API Gateway</text></g><!--cluster Caching--><g id="cluster_Caching"><polygon fill="none" points="880,16,890,6,1026,6,1026,138.29,1016,148.29,880,148.29,880,16" style="stroke:#181818;stroke-width:1.0;"/><line style="stroke:#181818;stroke-width:1.0;" x1="1016" x2="1026" y1="16" y2="6"/><line style="stroke:#181818;stroke-width:1.0;" x1="880" x2="1016" y1="16" y2="16"/><line style="stroke:#181818;stroke-width:1.0;" x1="1016" x2="1016" y1="16" y2="148.29"/><text fill="#000000" font-family="sans-serif" font-size="14" font-weight="bold" lengthAdjust="spacing" textLength="63" x="917.5" y="31.9951">Caching</text></g><!--entity React.js--><g id="elem_React.js"><rect fill="#F1F1F1" height="46.2969" rx="2.5" ry="2.5" style="stroke:#181818;stroke-width:0.5;" width="95" x="607.5" y="285.29"/><rect fill="#F1F1F1" height="10" style="stroke:#181818;stroke-width:0.5;" width="15" x="682.5" y="290.29"/><rect fill="#F1F1F1" height="2" style="stroke:#181818;stroke-width:0.5;" width="4" x="680.5" y="292.29"/><rect fill="#F1F1F1" height="2" style="stroke:#181818;stroke-width:0.5;" width="4" x="680.5" y="296.29"/><text fill="#000000" font-family="sans-serif" font-size="14" lengthAdjust="spacing" textLength="55" x="622.5" y="318.2851">React.js</text></g><!--entity Tailwind CSS--><g id="elem_Tailwind CSS"><rect fill="#F1F1F1" height="46.2969" rx="2.5" ry="2.5" style="stroke:#181818;stroke-width:0.5;" width="127" x="445.5" y="285.29"/><rect fill="#F1F1F1" height="10" style="stroke:#181818;stroke-width:0.5;" width="15" x="552.5" y="290.29"/><rect fill="#F1F1F1" height="2" style="stroke:#181818;stroke-width:0.5;" width="4" x="550.5" y="292.29"/><rect fill="#F1F1F1" height="2" style="stroke:#181818;stroke-width:0.5;" width="4" x="550.5" y="296.29"/><text fill="#000000" font-family="sans-serif" font-size="14" lengthAdjust="spacing" textLength="87" x="460.5" y="318.2851">Tailwind CSS</text></g><!--entity Redux Toolkit--><g id="elem_Redux Toolkit"><rect fill="#F1F1F1" height="46.2969" rx="2.5" ry="2.5" style="stroke:#181818;stroke-width:0.5;" width="134" x="276" y="285.29"/><rect fill="#F1F1F1" height="10" style="stroke:#181818;stroke-width:0.5;" width="15" x="390" y="290.29"/><rect fill="#F1F1F1" height="2" style="stroke:#181818;stroke-width:0.5;" width="4" x="388" y="292.29"/><rect fill="#F1F1F1" height="2" style="stroke:#181818;stroke-width:0.5;" width="4" x="388" y="296.29"/><text fill="#000000" font-family="sans-serif" font-size="14" lengthAdjust="spacing" textLength="94" x="291" y="318.2851">Redux Toolkit</text></g><!--entity API Integration--><g id="elem_API Integration"><rect fill="#F1F1F1" height="46.2969" rx="2.5" ry="2.5" style="stroke:#181818;stroke-width:0.5;" width="139" x="562.5" y="426.59"/><rect fill="#F1F1F1" height="10" style="stroke:#181818;stroke-width:0.5;" width="15" x="681.5" y="431.59"/><rect fill="#F1F1F1" height="2" style="stroke:#181818;stroke-width:0.5;" width="4" x="679.5" y="433.59"/><rect fill="#F1F1F1" height="2" style="stroke:#181818;stroke-width:0.5;" width="4" x="679.5" y="437.59"/><text fill="#000000" font-family="sans-serif" font-size="14" lengthAdjust="spacing" textLength="99" x="577.5" y="459.5851">API Integration</text></g><!--entity EDM--><g id="elem_EDM"><rect fill="#F1F1F1" height="62.5938" rx="2.5" ry="2.5" style="stroke:#181818;stroke-width:0.5;" width="293" x="21.5" y="591.89"/><rect fill="#F1F1F1" height="10" style="stroke:#181818;stroke-width:0.5;" width="15" x="294.5" y="596.89"/><rect fill="#F1F1F1" height="2" style="stroke:#181818;stroke-width:0.5;" width="4" x="292.5" y="598.89"/><rect fill="#F1F1F1" height="2" style="stroke:#181818;stroke-width:0.5;" width="4" x="292.5" y="602.89"/><text fill="#000000" font-family="sans-serif" font-size="14" lengthAdjust="spacing" textLength="253" x="36.5" y="624.8851">Employee Data Management Service</text><text fill="#000000" font-family="sans-serif" font-size="14" lengthAdjust="spacing" textLength="122" x="36.5" y="641.182">(Java/Spring Boot)</text></g><!--entity EOS--><g id="elem_EOS"><rect fill="#F1F1F1" height="62.5938" rx="2.5" ry="2.5" style="stroke:#181818;stroke-width:0.5;" width="247" x="349.5" y="591.89"/><rect fill="#F1F1F1" height="10" style="stroke:#181818;stroke-width:0.5;" width="15" x="576.5" y="596.89"/><rect fill="#F1F1F1" height="2" style="stroke:#181818;stroke-width:0.5;" width="4" x="574.5" y="598.89"/><rect fill="#F1F1F1" height="2" style="stroke:#181818;stroke-width:0.5;" width="4" x="574.5" y="602.89"/><text fill="#000000" font-family="sans-serif" font-size="14" lengthAdjust="spacing" textLength="207" x="364.5" y="624.8851">Employee Onboarding Service</text><text fill="#000000" font-family="sans-serif" font-size="14" lengthAdjust="spacing" textLength="122" x="364.5" y="641.182">(Java/Spring Boot)</text></g><!--entity ESS--><g id="elem_ESS"><rect fill="#F1F1F1" height="62.5938" rx="2.5" ry="2.5" style="stroke:#181818;stroke-width:0.5;" width="192" x="632" y="591.89"/><rect fill="#F1F1F1" height="10" style="stroke:#181818;stroke-width:0.5;" width="15" x="804" y="596.89"/><rect fill="#F1F1F1" height="2" style="stroke:#181818;stroke-width:0.5;" width="4" x="802" y="598.89"/><rect fill="#F1F1F1" height="2" style="stroke:#181818;stroke-width:0.5;" width="4" x="802" y="602.89"/><text fill="#000000" font-family="sans-serif" font-size="14" lengthAdjust="spacing" textLength="152" x="647" y="624.8851">Employee Self-Service</text><text fill="#000000" font-family="sans-serif" font-size="14" lengthAdjust="spacing" textLength="122" x="647" y="641.182">(Java/Spring Boot)</text></g><!--entity ATS--><g id="elem_ATS"><rect fill="#F1F1F1" height="62.5938" rx="2.5" ry="2.5" style="stroke:#181818;stroke-width:0.5;" width="240" x="859" y="591.89"/><rect fill="#F1F1F1" height="10" style="stroke:#181818;stroke-width:0.5;" width="15" x="1079" y="596.89"/><rect fill="#F1F1F1" height="2" style="stroke:#181818;stroke-width:0.5;" width="4" x="1077" y="598.89"/><rect fill="#F1F1F1" height="2" style="stroke:#181818;stroke-width:0.5;" width="4" x="1077" y="602.89"/><text fill="#000000" font-family="sans-serif" font-size="14" lengthAdjust="spacing" textLength="200" x="874" y="624.8851">Attendance &amp; Timing Service</text><text fill="#000000" font-family="sans-serif" font-size="14" lengthAdjust="spacing" textLength="122" x="874" y="641.182">(Java/Spring Boot)</text></g><!--entity ATSS--><g id="elem_ATSS"><rect fill="#F1F1F1" height="62.5938" rx="2.5" ry="2.5" style="stroke:#181818;stroke-width:0.5;" width="275" x="1133.5" y="591.89"/><rect fill="#F1F1F1" height="10" style="stroke:#181818;stroke-width:0.5;" width="15" x="1388.5" y="596.89"/><rect fill="#F1F1F1" height="2" style="stroke:#181818;stroke-width:0.5;" width="4" x="1386.5" y="598.89"/><rect fill="#F1F1F1" height="2" style="stroke:#181818;stroke-width:0.5;" width="4" x="1386.5" y="602.89"/><text fill="#000000" font-family="sans-serif" font-size="14" lengthAdjust="spacing" textLength="235" x="1148.5" y="624.8851">Applicant Tracking System Service</text><text fill="#000000" font-family="sans-serif" font-size="14" lengthAdjust="spacing" textLength="122" x="1148.5" y="641.182">(Java/Spring Boot)</text></g><!--entity OAuth 2.0 & JWT--><g id="elem_OAuth 2.0 &amp; JWT"><rect fill="#F1F1F1" height="46.2969" rx="2.5" ry="2.5" style="stroke:#181818;stroke-width:0.5;" width="154" x="662" y="78"/><rect fill="#F1F1F1" height="10" style="stroke:#181818;stroke-width:0.5;" width="15" x="796" y="83"/><rect fill="#F1F1F1" height="2" style="stroke:#181818;stroke-width:0.5;" width="4" x="794" y="85"/><rect fill="#F1F1F1" height="2" style="stroke:#181818;stroke-width:0.5;" width="4" x="794" y="89"/><text fill="#000000" font-family="sans-serif" font-size="14" lengthAdjust="spacing" textLength="114" x="677" y="110.9951">OAuth 2.0 &amp; JWT</text></g><!--entity Docker--><g id="elem_Docker"><rect fill="#F1F1F1" height="46.2969" rx="2.5" ry="2.5" style="stroke:#181818;stroke-width:0.5;" width="90" x="1360" y="285.29"/><rect fill="#F1F1F1" height="10" style="stroke:#181818;stroke-width:0.5;" width="15" x="1430" y="290.29"/><rect fill="#F1F1F1" height="2" style="stroke:#181818;stroke-width:0.5;" width="4" x="1428" y="292.29"/><rect fill="#F1F1F1" height="2" style="stroke:#181818;stroke-width:0.5;" width="4" x="1428" y="296.29"/><text fill="#000000" font-family="sans-serif" font-size="14" lengthAdjust="spacing" textLength="50" x="1375" y="318.2851">Docker</text></g><!--entity Kubernetes--><g id="elem_Kubernetes"><rect fill="#F1F1F1" height="46.2969" rx="2.5" ry="2.5" style="stroke:#181818;stroke-width:0.5;" width="121" x="1203.5" y="285.29"/><rect fill="#F1F1F1" height="10" style="stroke:#181818;stroke-width:0.5;" width="15" x="1304.5" y="290.29"/><rect fill="#F1F1F1" height="2" style="stroke:#181818;stroke-width:0.5;" width="4" x="1302.5" y="292.29"/><rect fill="#F1F1F1" height="2" style="stroke:#181818;stroke-width:0.5;" width="4" x="1302.5" y="296.29"/><text fill="#000000" font-family="sans-serif" font-size="14" lengthAdjust="spacing" textLength="81" x="1218.5" y="318.2851">Kubernetes</text></g><!--entity CI/CD--><g id="elem_CI/CD"><rect fill="#F1F1F1" height="46.2969" rx="2.5" ry="2.5" style="stroke:#181818;stroke-width:0.5;" width="79" x="1089.5" y="285.29"/><rect fill="#F1F1F1" height="10" style="stroke:#181818;stroke-width:0.5;" width="15" x="1148.5" y="290.29"/><rect fill="#F1F1F1" height="2" style="stroke:#181818;stroke-width:0.5;" width="4" x="1146.5" y="292.29"/><rect fill="#F1F1F1" height="2" style="stroke:#181818;stroke-width:0.5;" width="4" x="1146.5" y="296.29"/><text fill="#000000" font-family="sans-serif" font-size="14" lengthAdjust="spacing" textLength="39" x="1104.5" y="318.2851">CI/CD</text></g><!--entity Prometheus and Grafana--><g id="elem_Prometheus and Grafana"><rect fill="#F1F1F1" height="46.2969" rx="2.5" ry="2.5" style="stroke:#181818;stroke-width:0.5;" width="212" x="1679" y="285.29"/><rect fill="#F1F1F1" height="10" style="stroke:#181818;stroke-width:0.5;" width="15" x="1871" y="290.29"/><rect fill="#F1F1F1" height="2" style="stroke:#181818;stroke-width:0.5;" width="4" x="1869" y="292.29"/><rect fill="#F1F1F1" height="2" style="stroke:#181818;stroke-width:0.5;" width="4" x="1869" y="296.29"/><text fill="#000000" font-family="sans-serif" font-size="14" lengthAdjust="spacing" textLength="172" x="1694" y="318.2851">Prometheus and Grafana</text></g><!--entity ELK Stack--><g id="elem_ELK Stack"><rect fill="#F1F1F1" height="46.2969" rx="2.5" ry="2.5" style="stroke:#181818;stroke-width:0.5;" width="107" x="1537.5" y="285.29"/><rect fill="#F1F1F1" height="10" style="stroke:#181818;stroke-width:0.5;" width="15" x="1624.5" y="290.29"/><rect fill="#F1F1F1" height="2" style="stroke:#181818;stroke-width:0.5;" width="4" x="1622.5" y="292.29"/><rect fill="#F1F1F1" height="2" style="stroke:#181818;stroke-width:0.5;" width="4" x="1622.5" y="296.29"/><text fill="#000000" font-family="sans-serif" font-size="14" lengthAdjust="spacing" textLength="67" x="1552.5" y="318.2851">ELK Stack</text></g><!--entity Zuul/Kong--><g id="elem_Zuul/Kong"><rect fill="#F1F1F1" height="46.2969" rx="2.5" ry="2.5" style="stroke:#181818;stroke-width:0.5;" width="112" x="793" y="285.29"/><rect fill="#F1F1F1" height="10" style="stroke:#181818;stroke-width:0.5;" width="15" x="885" y="290.29"/><rect fill="#F1F1F1" height="2" style="stroke:#181818;stroke-width:0.5;" width="4" x="883" y="292.29"/><rect fill="#F1F1F1" height="2" style="stroke:#181818;stroke-width:0.5;" width="4" x="883" y="296.29"/><text fill="#000000" font-family="sans-serif" font-size="14" lengthAdjust="spacing" textLength="72" x="808" y="318.2851">Zuul/Kong</text></g><!--entity Redis--><g id="elem_Redis"><rect fill="#F1F1F1" height="46.2969" rx="2.5" ry="2.5" style="stroke:#181818;stroke-width:0.5;" width="79" x="923.5" y="78"/><rect fill="#F1F1F1" height="10" style="stroke:#181818;stroke-width:0.5;" width="15" x="982.5" y="83"/><rect fill="#F1F1F1" height="2" style="stroke:#181818;stroke-width:0.5;" width="4" x="980.5" y="85"/><rect fill="#F1F1F1" height="2" style="stroke:#181818;stroke-width:0.5;" width="4" x="980.5" y="89"/><text fill="#000000" font-family="sans-serif" font-size="14" lengthAdjust="spacing" textLength="39" x="938.5" y="110.9951">Redis</text></g><!--entity SQL--><g id="elem_SQL"><path d="M1443,610.53 C1443,600.53 1476,600.53 1476,600.53 C1476,600.53 1509,600.53 1509,610.53 L1509,635.8269 C1509,645.8269 1476,645.8269 1476,645.8269 C1476,645.8269 1443,645.8269 1443,635.8269 L1443,610.53 " fill="#F1F1F1" style="stroke:#181818;stroke-width:0.5;"/><path d="M1443,610.53 C1443,620.53 1476,620.53 1476,620.53 C1476,620.53 1509,620.53 1509,610.53 " fill="none" style="stroke:#181818;stroke-width:0.5;"/><text fill="#000000" font-family="sans-serif" font-size="14" lengthAdjust="spacing" textLength="46" x="1453" y="637.5251">MySQL</text></g><!--entity MDB--><g id="elem_MDB"><path d="M1544.5,610.53 C1544.5,600.53 1589,600.53 1589,600.53 C1589,600.53 1633.5,600.53 1633.5,610.53 L1633.5,635.8269 C1633.5,645.8269 1589,645.8269 1589,645.8269 C1589,645.8269 1544.5,645.8269 1544.5,635.8269 L1544.5,610.53 " fill="#F1F1F1" style="stroke:#181818;stroke-width:0.5;"/><path d="M1544.5,610.53 C1544.5,620.53 1589,620.53 1589,620.53 C1589,620.53 1633.5,620.53 1633.5,610.53 " fill="none" style="stroke:#181818;stroke-width:0.5;"/><text fill="#000000" font-family="sans-serif" font-size="14" lengthAdjust="spacing" textLength="69" x="1554.5" y="637.5251">MongoDB</text></g><!--link React.js to API Integration--><g id="link_React.js_API Integration"><path d="M651.3,331.82 C647.01,357.82 640.9457,394.5199 636.6657,420.4899 " fill="none" id="React.js-to-API Integration" style="stroke:#181818;stroke-width:1.0;"/><polygon fill="#181818" points="635.69,426.41,641.1003,418.1802,636.5031,421.4765,633.2067,416.8793,635.69,426.41" style="stroke:#181818;stroke-width:1.0;"/><text fill="#000000" font-family="sans-serif" font-size="13" lengthAdjust="spacing" textLength="30" x="643" y="392.6569">uses</text></g><!--link API Integration to EDM--><g id="link_API Integration_EDM"><path d="M562.17,463.89 C500.31,476.76 408.25,498.96 332,529.89 C290.67,546.65 251.8898,568.609 219.9298,588.419 " fill="none" id="API Integration-to-EDM" style="stroke:#181818;stroke-width:1.0;"/><polygon fill="#181818" points="214.83,591.58,224.587,590.2383,219.0798,588.9458,220.3723,583.4386,214.83,591.58" style="stroke:#181818;stroke-width:1.0;"/></g><!--link API Integration to EOS--><g id="link_API Integration_EOS"><path d="M611.21,473.15 C583.1,503.47 536.9299,553.2506 505.3899,587.2606 " fill="none" id="API Integration-to-EOS" style="stroke:#181818;stroke-width:1.0;"/><polygon fill="#181818" points="501.31,591.66,510.3627,587.7808,504.7099,587.9938,504.4969,582.341,501.31,591.66" style="stroke:#181818;stroke-width:1.0;"/></g><!--link API Integration to ESS--><g id="link_API Integration_ESS"><path d="M636.9,473.28 C640.53,487.65 646.19,506.42 654,521.89 C666.68,547 681.7731,567.8242 697.2931,586.8142 " fill="none" id="API Integration-to-ESS" style="stroke:#181818;stroke-width:1.0;"/><polygon fill="#181818" points="701.09,591.46,698.4919,581.96,697.9259,587.5885,692.2974,587.0225,701.09,591.46" style="stroke:#181818;stroke-width:1.0;"/></g><!--link API Integration to ATS--><g id="link_API Integration_ATS"><path d="M701.69,451.02 C794.68,453.05 951.84,462.81 988,504.89 C1008.23,528.43 1003.2246,559.6973 994.2246,585.8173 " fill="none" id="API Integration-to-ATS" style="stroke:#181818;stroke-width:1.0;"/><polygon fill="#181818" points="992.27,591.49,998.9837,584.284,993.8988,586.7628,991.4201,581.6779,992.27,591.49" style="stroke:#181818;stroke-width:1.0;"/></g><!--link API Integration to ATSS--><g id="link_API Integration_ATSS"><path d="M701.65,452.17 C798.22,456.35 976.61,472.03 1116,529.89 C1155.63,546.33 1192.2278,568.2968 1222.3478,588.2468 " fill="none" id="API Integration-to-ATSS" style="stroke:#181818;stroke-width:1.0;"/><polygon fill="#181818" points="1227.35,591.56,1222.0555,583.2553,1223.1815,588.799,1217.6378,589.925,1227.35,591.56" style="stroke:#181818;stroke-width:1.0;"/></g><!--link EDM to SQL--><g id="link_EDM_SQL"><path d="M209.52,591.48 C241.18,569.4 286.88,541.85 332,529.89 C420.82,506.34 1363.14,494.11 1424,529.89 C1449.74,545.02 1461.9302,572.2778 1468.7202,594.6878 " fill="none" id="EDM-to-SQL" style="stroke:#181818;stroke-width:1.0;"/><polygon fill="#181818" points="1470.46,600.43,1471.6784,590.6568,1469.0101,595.6448,1464.0221,592.9766,1470.46,600.43" style="stroke:#181818;stroke-width:1.0;"/><text fill="#000000" font-family="sans-serif" font-size="13" lengthAdjust="spacing" textLength="77" x="656.5" y="517.9569">reads/writes</text></g><!--link EOS to SQL--><g id="link_EOS_SQL"><path d="M507.96,591.57 C534.81,569.53 573.96,542 614,529.89 C667.39,513.74 683.72,529.6 739.5,529.52 C1003.49,529.13 1419.83,527.44 1424,529.89 C1449.74,545.02 1461.9302,572.2778 1468.7202,594.6878 " fill="none" id="EOS-to-SQL" style="stroke:#181818;stroke-width:1.0;"/><polygon fill="#181818" points="1470.46,600.43,1471.6784,590.6568,1469.0101,595.6448,1464.0221,592.9766,1470.46,600.43" style="stroke:#181818;stroke-width:1.0;"/><text fill="#000000" font-family="sans-serif" font-size="13" lengthAdjust="spacing" textLength="77" x="740.5" y="517.9569">reads/writes</text></g><!--link ESS to SQL--><g id="link_ESS_SQL"><path d="M749.79,591.42 C766.93,569.45 792.97,541.99 823.5,529.52 C856,516.24 867.39,529.51 902.5,529.52 C960.44,529.54 1374.05,500.52 1424,529.89 C1449.74,545.02 1461.9302,572.2778 1468.7202,594.6878 " fill="none" id="ESS-to-SQL" style="stroke:#181818;stroke-width:1.0;"/><polygon fill="#181818" points="1470.46,600.43,1471.6784,590.6568,1469.0101,595.6448,1464.0221,592.9766,1470.46,600.43" style="stroke:#181818;stroke-width:1.0;"/><text fill="#000000" font-family="sans-serif" font-size="13" lengthAdjust="spacing" textLength="77" x="824.5" y="517.9569">reads/writes</text></g><!--link ESS to MDB--><g id="link_ESS_MDB"><path d="M755.36,591.48 C776.49,569.55 807.83,542.19 842,529.89 C869.39,520.02 878.39,529.6 907.5,529.52 C1141.51,528.86 1519.59,525.91 1527,529.89 C1554.59,544.69 1569.7478,572.2087 1578.8678,594.7287 " fill="none" id="ESS-to-MDB" style="stroke:#181818;stroke-width:1.0;"/><polygon fill="#181818" points="1581.12,600.29,1581.4493,590.4466,1579.2432,595.6556,1574.0342,593.4495,1581.12,600.29" style="stroke:#181818;stroke-width:1.0;"/><text fill="#000000" font-family="sans-serif" font-size="13" lengthAdjust="spacing" textLength="77" x="908.5" y="517.9569">reads/writes</text></g><!--link ATS to SQL--><g id="link_ATS_SQL"><path d="M1012.81,591.59 C1038.82,569.56 1076.83,542.03 1116,529.89 C1181.38,509.62 1365.04,495.13 1424,529.89 C1449.72,545.05 1461.9048,572.2994 1468.7148,594.6994 " fill="none" id="ATS-to-SQL" style="stroke:#181818;stroke-width:1.0;"/><polygon fill="#181818" points="1470.46,600.44,1471.6692,590.6657,1469.0056,595.6562,1464.0151,592.9926,1470.46,600.44" style="stroke:#181818;stroke-width:1.0;"/><text fill="#000000" font-family="sans-serif" font-size="13" lengthAdjust="spacing" textLength="77" x="1226.5" y="517.9569">reads/writes</text></g><!--link ATSS to MDB--><g id="link_ATSS_MDB"><path d="M1310.41,591.43 C1340.02,569.64 1382.59,542.46 1425,529.89 C1429.9,528.43 1431.39,529.6 1436.5,529.52 C1476.72,528.88 1491.86,510.32 1527,529.89 C1554.19,545.02 1569.3194,572.1345 1578.5594,594.5045 " fill="none" id="ATSS-to-MDB" style="stroke:#181818;stroke-width:1.0;"/><polygon fill="#181818" points="1580.85,600.05,1581.1111,590.2046,1578.9412,595.4287,1573.7171,593.2587,1580.85,600.05" style="stroke:#181818;stroke-width:1.0;"/><text fill="#000000" font-family="sans-serif" font-size="13" lengthAdjust="spacing" textLength="77" x="1437.5" y="517.9569">reads/writes</text></g><!--link API Gateway to API Integration--><g id="link_API Gateway_API Integration"><path d="M749.9793,324.2548 C749.8852,324.4206 749.7904,324.5874 749.6949,324.7551 C749.5039,325.0906 749.3101,325.4299 749.1136,325.773 C748.7206,326.4592 748.3167,327.1602 747.9024,327.8747 C747.0738,329.3036 746.2034,330.7866 745.295,332.3125 C738.0275,344.52 728.32,359.48 718,371.59 C700.83,391.74 683.1257,407.7986 665.5257,422.3386 " fill="none" id="API Gateway-to-API Integration" style="stroke:#181818;stroke-width:1.0;"/><polygon fill="#181818" points="660.9,426.16,670.3861,423.5116,664.7547,422.9755,665.2909,417.3441,660.9,426.16" style="stroke:#181818;stroke-width:1.0;"/><text fill="#000000" font-family="sans-serif" font-size="13" lengthAdjust="spacing" textLength="41" x="710" y="392.6569">routes</text></g><!--link Security to API Gateway--><g id="link_Security_API Gateway"><path d="M636.2905,148.5205 C636.6479,149.3378 637.0191,150.1494 637.4045,150.9537 C638.1755,152.5623 639.0035,154.1418 639.893,155.679 C641.6719,158.7534 643.6963,161.6587 646,164.29 C669.18,190.78 694.14,171.41 718,197.29 C726.6875,206.715 733.5219,218.1719 738.8891,230.0898 C741.5727,236.0488 743.8895,242.1231 745.8877,248.1163 C746.8868,251.1129 747.8063,254.0892 748.6522,257.0207 C749.0751,258.4865 747.9231,254.1464 748.31,255.5867 " fill="none" id="Security-to-API Gateway" style="stroke:#181818;stroke-width:1.0;"/><polygon fill="#181818" points="749.8665,261.3813,751.3948,251.6517,748.5694,256.5525,743.6687,253.7271,749.8665,261.3813" style="stroke:#181818;stroke-width:1.0;"/><text fill="#000000" font-family="sans-serif" font-size="13" lengthAdjust="spacing" textLength="50" x="708" y="185.3569">secures</text></g><!--link Caching to API Gateway--><g id="link_Caching_API Gateway"><path d="M879.8274,113.0467 C878.8981,114.2437 877.9005,115.5165 876.8403,116.8532 C874.7199,119.5266 872.3491,122.4559 869.7738,125.5462 C859.4725,137.9075 845.9,152.845 832,164.29 C809.99,182.41 793.11,173.77 777,197.29 C775.2725,199.8119 773.6857,202.4404 772.2287,205.1529 C771.5002,206.5091 770.8043,207.8864 770.1394,209.2818 C769.8069,209.9795 769.4823,210.6817 769.1652,211.3881 C769.0067,211.7413 768.8501,212.0956 768.6954,212.4508 C768.618,212.6285 770.907,207.2925 770.8305,207.4706 " fill="none" id="Caching-to-API Gateway" style="stroke:#181818;stroke-width:1.0;"/><polygon fill="#181818" points="768.4647,212.9845,775.6894,206.2909,770.4362,208.3896,768.3375,203.1364,768.4647,212.9845" style="stroke:#181818;stroke-width:1.0;"/><text fill="#000000" font-family="sans-serif" font-size="13" lengthAdjust="spacing" textLength="45" x="820" y="185.3569">caches</text></g><!--link Infrastructure & Deployment to Docker--><g id="link_Infrastructure &amp; Deployment_Docker"><path d="M1404,102.29 C1404.02,107.21 1404.6113,226.7101 1404.8613,278.9501 " fill="none" id="Infrastructure &amp; Deployment-to-Docker" style="stroke:#181818;stroke-width:1.0;"/><polygon fill="#181818" points="1404.89,284.95,1408.8469,275.931,1404.8661,279.9501,1400.847,275.9692,1404.89,284.95" style="stroke:#181818;stroke-width:1.0;"/><text fill="#000000" font-family="sans-serif" font-size="13" lengthAdjust="spacing" textLength="60" x="1405" y="185.3569">manages</text></g><!--link Monitoring and Logging to Prometheus and Grafana--><g id="link_Monitoring and Logging_Prometheus and Grafana"><path d="M1785,102.29 C1785,107.21 1785,226.71 1785,278.95 " fill="none" id="Monitoring and Logging-to-Prometheus and Grafana" style="stroke:#181818;stroke-width:1.0;"/><polygon fill="#181818" points="1785,284.95,1789,275.95,1785,279.95,1781,275.95,1785,284.95" style="stroke:#181818;stroke-width:1.0;"/><text fill="#000000" font-family="sans-serif" font-size="13" lengthAdjust="spacing" textLength="57" x="1786" y="185.3569">monitors</text></g><!--SRC=[bLHDRzf04BtxLsnywCU1KFMOGoM3NKI0ahAMAbMz3El1R6FlMhlhK5JrltVMf41YuwHSiFpclVbwuwiCDr8XMoNZDFeocITCwBBI2fKBhXwnE4gZKSGJbe63DLWCWWh4FUJ8miz6AuSgOtFOemdPxu3HxwGMhX24k_vfm-T02hBOIMAEEG_RhAp-nLAjYtlfMcXqDsLJIfiRS5AhCFXpLj687dn12ocCjcWUf43RKLXILeNU8xL7NR45A6ANr3RZ1yuFzUuM7c38AoDLpaPQk_SX0ykIU75HQwdM6apc2I_ABFb56Ox5Pl2Y06y9HCxl0fH0zeQbidnD7L7QbgcgGWgWMQI6fjcexAt3yZLYt6_ZQ9bmiUTVvmr6_-VljSfrF6gGHJmA0gKpsXv7KHlfzXqBMqQrsxAFrn-ejzjlQRFr0scgDWQiCxLmjV6jn-W7wRVPeHDhCeXfcMfMhz4eTDYswdWw7CTd-QXswNJJEdZhwpodvuvKTqQNwBPOsoPmOc13Fclf9_CPuuucVPR3Utm23dVGDOllTLqCPpJ2CyOOnBQx3BecQPl8joiicfknmUaosI3JEpNur3uiTiDgYnJR0lvH_37qeEJn7fJteTwNlIWFA3aR69bl7RqXUr6v1Y6pmnrPYCgczFqu_m-SJFeSfo9w-Rx8Ne6dM-vRWz5rGpZTnvFeeyODipx2XnxzS2bIK80Fx3sV8_dnR8XNDjzA8bwwWoFdWl-zne5gWxy0]--></g></svg>